<svg width="518" height="627" viewBox="0 0 518 627" fill="none" xmlns="http://www.w3.org/2000/svg">
<g filter="url(#filter0_dii_1_860)">
<path d="M87.6571 103.919C87.6571 82.451 105.06 65.0479 126.528 65.0479H299.882C321.35 65.0479 338.753 82.451 338.753 103.919V177.372C338.753 178.296 339.501 179.044 340.425 179.044V179.044C341.348 179.044 342.097 179.793 342.097 180.716V225.403C342.097 226.326 341.348 227.075 340.425 227.075V227.075C339.501 227.075 338.753 227.823 338.753 228.747V541.744C338.753 563.212 321.35 580.615 299.882 580.615H126.528C105.06 580.615 87.6571 563.212 87.6571 541.744V250.178C87.6571 249.338 86.9766 248.658 86.1371 248.658V248.658C85.2977 248.658 84.6172 247.977 84.6172 247.138V209.443C84.6172 208.604 85.2977 207.923 86.1371 207.923V207.923C86.9766 207.923 87.6571 207.243 87.6571 206.403V201.843C87.6571 201.004 86.9766 200.323 86.1371 200.323V200.323C85.2977 200.323 84.6172 199.643 84.6172 198.804V159.893C84.6172 159.053 85.2977 158.373 86.1371 158.373V158.373C86.9766 158.373 87.6571 157.692 87.6571 156.853V103.919Z" fill="#5A5A5A"/>
<path d="M126.528 65.3718H299.882C321.171 65.3718 338.429 82.6299 338.429 103.919V177.372C338.429 178.475 339.323 179.368 340.425 179.368C341.169 179.368 341.773 179.972 341.773 180.716V225.403C341.773 226.147 341.169 226.751 340.425 226.751C339.323 226.751 338.429 227.644 338.429 228.747V541.744C338.429 563.033 321.171 580.291 299.882 580.291H126.528C105.239 580.291 87.981 563.033 87.981 541.744V250.178C87.981 249.16 87.1555 248.334 86.1371 248.334C85.4766 248.334 84.9411 247.799 84.9411 247.138V209.443C84.9411 208.783 85.4766 208.247 86.1371 208.247C87.1555 208.247 87.981 207.422 87.981 206.403V201.843C87.981 200.825 87.1555 200 86.1371 200C85.4766 200 84.9411 199.464 84.9411 198.804V159.893C84.9411 159.232 85.4766 158.697 86.1371 158.697C87.1555 158.697 87.981 157.871 87.981 156.853V103.919C87.981 82.6299 105.239 65.3718 126.528 65.3718Z" stroke="#5A5A5A" stroke-width="0.647849"/>
</g>
<path d="M121.692 84.2185H148.44V86.8371C148.44 93.5165 153.855 98.9313 160.535 98.9313H266.469C273.149 98.9313 278.564 93.5165 278.564 86.8371V84.2185H304.723C314.946 84.2185 323.232 92.505 323.232 102.727V542.935C323.232 553.157 314.946 561.443 304.723 561.443H121.692C111.47 561.443 103.183 553.157 103.183 542.935V102.727C103.183 92.505 111.47 84.2185 121.692 84.2185Z" fill="#181818" stroke="#181818" stroke-width="0.647849"/>
<rect opacity="0.4" x="189.789" y="85.1118" width="52.2863" height="4.86384" rx="2.43192" fill="#333333"/>
<rect opacity="0.5" x="250.59" y="82.0713" width="10.9436" height="10.9436" rx="5.47182" fill="#313131"/>
<rect opacity="0.5" x="253.02" y="84.5034" width="6.0798" height="6.0798" rx="3.0399" fill="#5A5A5A"/>
<rect opacity="0.5" x="160.609" y="85.1118" width="4.86384" height="4.86384" rx="2.43192" fill="#333333"/>
<defs>
<filter id="filter0_dii_1_860" x="0.396828" y="0.26297" width="516.619" height="774.707" filterUnits="userSpaceOnUse" color-interpolation-filters="sRGB">
<feFlood flood-opacity="0" result="BackgroundImageFix"/>
<feColorMatrix in="SourceAlpha" type="matrix" values="0 0 0 0 0 0 0 0 0 0 0 0 0 0 0 0 0 0 127 0" result="hardAlpha"/>
<feOffset dx="45.3494" dy="64.7849"/>
<feGaussianBlur stdDeviation="64.7849"/>
<feColorMatrix type="matrix" values="0 0 0 0 0 0 0 0 0 0 0 0 0 0 0 0 0 0 0.17 0"/>
<feBlend mode="normal" in2="BackgroundImageFix" result="effect1_dropShadow_1_860"/>
<feBlend mode="normal" in="SourceGraphic" in2="effect1_dropShadow_1_860" result="shape"/>
<feColorMatrix in="SourceAlpha" type="matrix" values="0 0 0 0 0 0 0 0 0 0 0 0 0 0 0 0 0 0 127 0" result="hardAlpha"/>
<feOffset dx="6.47849" dy="12.957"/>
<feGaussianBlur stdDeviation="9.71773"/>
<feComposite in2="hardAlpha" operator="arithmetic" k2="-1" k3="1"/>
<feColorMatrix type="matrix" values="0 0 0 0 0 0 0 0 0 0 0 0 0 0 0 0 0 0 0.1 0"/>
<feBlend mode="normal" in2="shape" result="effect2_innerShadow_1_860"/>
<feColorMatrix in="SourceAlpha" type="matrix" values="0 0 0 0 0 0 0 0 0 0 0 0 0 0 0 0 0 0 127 0" result="hardAlpha"/>
<feOffset dx="-6.47849" dy="-12.957"/>
<feGaussianBlur stdDeviation="9.71773"/>
<feComposite in2="hardAlpha" operator="arithmetic" k2="-1" k3="1"/>
<feColorMatrix type="matrix" values="0 0 0 0 0 0 0 0 0 0 0 0 0 0 0 0 0 0 0.1 0"/>
<feBlend mode="normal" in2="effect2_innerShadow_1_860" result="effect3_innerShadow_1_860"/>
</filter>
</defs>
</svg>
