<?xml version="1.0" encoding="utf-8"?>
<!-- Generator: Adobe Illustrator 24.3.0, SVG Export Plug-In . SVG Version: 6.00 Build 0)  -->
<svg version="1.1" id="Layer_1" xmlns="http://www.w3.org/2000/svg" xmlns:xlink="http://www.w3.org/1999/xlink" x="0px" y="0px"
	 viewBox="0 0 1080 1080" style="enable-background:new 0 0 1080 1080;" xml:space="preserve">
<style type="text/css">
	.st0{fill:#135EAB;}
	.st1{fill:#318BEC;}
	.st2{fill:#FFFFFF;}
	.st3{font-family:'BerlinSansFB-Reg';}
	.st4{font-size:185.4003px;}
	.st5{fill:none;stroke:#FFFFFF;stroke-width:8;stroke-miterlimit:10;}
</style>
<text transform="matrix(1 0 0 1 196.1553 789.188)" class="st2 st3 st4">FRAMEZ</text>
<g>
	<path class="st5" d="M484,480.6c0,42.2-12.2,75.8-36.8,100.8c-24.5,25-57.9,37.5-100.1,37.5c-45.8,0-81.3-16.1-106.4-48.4
		c-22.9-29.3-34.4-67.4-34.4-114.4c0-57.6,20.4-107.5,61.2-149.7S357.6,243,415,243c3.8,0,6.5,2.1,8.1,6.3
		c10.2,28.1,15.2,42.3,15.2,42.7c0,5.8-3.7,8.7-11.1,8.7c-27.9,0-52.8,5.7-74.7,17c-28.3,14.7-47.9,34.2-58.9,58.3
		c-1.4,3.2-2.1,5.7-2.1,7.5c0,2.4-9.7,12.4,3,3.3c12-4.6,23.8-9.2,35.6-13.7c12.8-4.2,25.3-6.3,37.6-6.3c34.1,0,62,10.5,83.7,31.4
		C473.1,419,484,446.5,484,480.6z M419.8,481.8c0-20.1-6.4-36.7-19.1-49.8c-12.8-13-29.2-19.6-49.3-19.6
		c-50.6,0-75.9,20.4-75.9,61.2c0,23.1,5.9,43.4,17.6,60.9c13.5,19.7,31.4,29.6,53.5,29.6C395.3,564.2,419.8,536.8,419.8,481.8z"/>
	<path class="st5" d="M795,529.6c0,3.8-2.2,5.6-6.6,5.4c-7.2-0.4-17.3-0.6-30.5-0.6c-4.8,0-7.6,0.3-8.4,0.9c-1.6,1-2.4,3.8-2.4,8.4
		c0,7,0.5,17.5,1.6,31.5c1.1,14,1.6,24.5,1.6,31.5c0,4.4-2.5,7-7.5,7.8c-6.8,1.2-18.4,1.8-35,1.8c-27.9,0-41.8-2.2-41.8-6.6
		c0-5.8,1.1-16.7,3.3-32.9c2.2-16.1,3.3-28,3.3-35.6c0-4.6-1.7-6.9-5.1-6.9c-16.1,0-40.3,0.5-72.5,1.5c-32.2,1-56.3,1.5-72.5,1.5
		c-12,0-17.9-12.2-17.9-36.8c0-19.3,1.9-31.3,5.7-35.9c13.7-15.7,33.5-39.8,59.2-72.3c32.1-45,57-81,74.7-107.9
		c5.6-8.8,14.1-21.8,25.7-39.1c3.2-4.2,6.3-6.3,9.3-6.3c13.7,0,34.8,5.2,63,15.5c6.2,2.2,9.3,5.9,9.3,11.1c0,10.2-0.8,25.5-2.2,45.9
		c-1.5,20.4-2.2,35.7-2.2,45.9c0,9.2-0.1,24.9-0.3,47.2c-0.4,20.1-0.5,35.9-0.3,47.2v24.2c5.2,0,12.8-0.4,22.9-1.2
		s17.6-1.2,22.6-1.2c1.6,0,2.4,1.7,2.4,5.1c0,5.6,0.1,14,0.3,25.2C794.9,515.3,795,523.8,795,529.6z M683.6,316.5
		c0-1.6-0.6-2.8-1.8-3.6c-1.8,0-4.4,3.4-7.8,10.2c-2,4.4-4.1,8.7-6.3,12.9c-34.5,46.2-68.9,92.8-103.4,139.8c1,2.2,9.1,3.3,24.2,3.3
		h12.2c33.3,0,58.1-0.5,74.4-1.5c0.2-24.5,0.5-49,0.9-73.5c0.8-31.3,2.5-55.2,5.1-71.7C682.8,322.8,683.6,317.5,683.6,316.5z"/>
</g>
<g>
	<path class="st0" d="M464.9,636.8l10.3,9.7c0.4,0.4,0.4,1.1,0,1.5l-10.5,9.9c-0.4,0.4-1,0.4-1.4,0l-9-9.4c-0.4-0.4-0.4-1,0-1.4
		l9.1-10.1C463.8,636.5,464.5,636.4,464.9,636.8z"/>
	<path class="st1" d="M464.5,658.1l10.7-10.2c0.4-0.4,0.4-1.1,0-1.5l-10.6-9.9c-0.2-0.2-0.5,0-0.5,0.2l-0.1,21.1
		C464,658.1,464.3,658.2,464.5,658.1z"/>
</g>
<g>
	<path class="st0" d="M866.6,770.5h-1.8c-0.5,0-0.8,0.4-0.8,0.8v18.1c0,0.5,0.4,0.8,0.8,0.8h8.3c0.5,0,0.9-0.4,0.8-0.9l-2-15.8
		c0-0.3-0.2-0.5-0.5-0.6l-4.4-2.3C866.9,770.6,866.7,770.5,866.6,770.5z"/>
	<path class="st1" d="M865.2,769.7v18.7c0,0.5,0.4,0.8,0.8,0.8h9.1c0.2,0,0.5-0.1,0.6-0.3l7.9-9.2c0.3-0.3,0.3-0.8,0-1.1l-8.1-9.2
		c-0.2-0.2-0.4-0.3-0.6-0.3c-1.4,0-6.8-0.2-8.9-0.3C865.6,768.8,865.2,769.2,865.2,769.7z"/>
</g>
<g>
	<path class="st0" d="M812,474.7h-5.6c-1.4,0-2.5,1.1-2.5,2.5v55c0,1.4,1.1,2.5,2.5,2.5h25.3c1.5,0,2.7-1.3,2.5-2.8l-6.2-48.1
		c-0.1-0.8-0.6-1.5-1.4-1.9l-13.5-6.9C812.8,474.8,812.4,474.7,812,474.7z"/>
	<path class="st1" d="M807.8,472.2V529c0,1.4,1.1,2.5,2.5,2.5h27.6c0.7,0,1.4-0.3,1.9-0.9l24-28.1c0.8-1,0.8-2.4,0-3.3l-24.6-27.9
		c-0.5-0.5-1.1-0.8-1.8-0.9c-4.3-0.1-20.6-0.7-27-0.9C808.9,469.6,807.8,470.7,807.8,472.2z"/>
</g>
<g>
	<circle class="st0" cx="346.1" cy="485.3" r="57.7"/>
	<path class="st1" d="M346.1,427.6c31.9,0,57.7,25.8,57.7,57.7S378,543,346.1,543"/>
</g>
<g>
	<path class="st1" d="M351.2,692h10c0.4,0,0.8,0.3,1,0.7c0.5,1.6,0.7,5.6-6.8,8.3v5.3c0,0,6.7,2.9,7.1,8.7c0,0.6-0.4,1-1,1h-10.3"/>
	<path class="st1" d="M351.6,692h-10c-0.4,0-0.8,0.3-1,0.7c-0.5,1.6-0.7,5.3,6.2,8.1c0.4,0.2,0.6,0.5,0.6,0.9c0,1,0,3,0,4
		c0,0.4-0.2,0.7-0.5,0.9c-1.6,0.8-6.2,3.6-6.6,8.4c0,0.6,0.4,1,1,1h10.3"/>
</g>
<path class="st1" d="M657.4,631.2h-12.2c-0.5,0-1,0.5-1,1v3.8c0,0.2,0.1,0.4,0.3,0.6l0,0c2.1,1.8,4.5,3.1,7.2,3.9l0,0
	c0.1,0,0.2,0.1,0.2,0.2l0.3,0.7c0.5,1.1,0.6,2.3,0.1,3.4l-0.4,0.9c0,0.1-0.2,0.2-0.3,0.2l0,0c-2.8,1.1-5.4,3-7.3,5.3l0,0v3.1
	c0,0.5,0.5,1,1,1h12.2c0.3,0,0.6-0.1,0.8-0.4l9.5-11.4c0.3-0.4,0.3-0.9,0-1.3l-9.5-10.7C657.9,631.3,657.7,631.2,657.4,631.2z"/>
<path class="st1" d="M542,630.7h12.2c0.5,0,1,0.5,1,1v3.8c0,0.2-0.1,0.4-0.3,0.6l0,0c-2.1,1.8-4.5,3.1-7.2,3.9l0,0
	c-0.1,0-0.2,0.1-0.2,0.2l-0.3,0.7c-0.5,1.1-0.6,2.3-0.1,3.4l0.4,0.9c0,0.1,0.2,0.2,0.3,0.2l0,0c2.8,1.1,5.4,3,7.3,5.3l0,0v3.1
	c0,0.5-0.5,1-1,1h-12.2c-0.3,0-0.6-0.1-0.8-0.4l-9.5-11.4c-0.3-0.4-0.3-0.9,0-1.3l9.5-10.7C541.4,630.8,541.7,630.7,542,630.7z"/>
</svg>
